# xmcd
#
# Track frame offsets:
#	150
#	9536
#	20554
#	32911
#	47479
#	60186
#	75645
#	84792
#	95950
#	106459
#	119742
#	130642
#	141060
#	154032
#	168403
#	181065
#	193421
#	205456
#	218257
#	231753
#	245778
#	258834
#	268036
#	284045
#	297366
#
# Disc length: 4108 seconds
#
# Revision: 1
# Processed by: cddbd v1.5.2PL0 Copyright (c) Steve Scherf et al.
# Submitted via: audiograbber 1.83.01
#
DISCID=68100a19
DTITLE=Various Artist - Louisiana Swamp Blues 2 CD A
DYEAR=2017
DGENRE=Blues
TTITLE0=Lonesome Sundown - You Know I Love You
TTITLE1=Cleveland Crochet - Sweet Thing
TTITLE2=Boogie Ramblers - Such As Love
TTITLE3=Lightnin' Slim - What Evil Have I Done
TTITLE4=King Karl and Guitar Gable - This Should Go On Forever
TTITLE5=Clarence Garlow - Nothin' To Talk About
TTITLE6=Guitar Jr. - Get It
TTITLE7=Leroy Washington - I've Been In This Prison
TTITLE8=Clarence Locksley - Crowley Blues
TTITLE9=Nathan Abshire - Lu Lu Boogie
TTITLE10=Godd Rockin' Bob - Take It Easy Kate
TTITLE11=Cookie and The Cupcakes - Mathilda
TTITLE12=Tal Miller - B-A-B-Y
TTITLE13=Lonesome Sundown - Lonely Lonely Me
TTITLE14=Blue Charlie - Watch That Crow
TTITLE15=Bill Parker Band - Boogie Bayou Shuffle
TTITLE16=Lightnin' Slim - Lightnin' Slim Boogie Alt.
TTITLE17=Charles Sheffield - Mad Dog
TTITLE18=Duke Stevens - Emma Jean
TTITLE19=Ramblin' Hi Harris - I Haven't Got A Home
TTITLE20=Schoolboy Cleve - Strange Letter Blues
TTITLE21=Tabby Thomas - Roll On Old Mule
TTITLE22=Jake Johnson - Dirty Woman Blues
TTITLE23=Shelton Dunaway - Since Your Love Has Grown Cold
TTITLE24=Boogie Jake - In Don't Know Why
EXTD=
EXTT0=
EXTT1=
EXTT2=
EXTT3=
EXTT4=
EXTT5=
EXTT6=
EXTT7=
EXTT8=
EXTT9=
EXTT10=
EXTT11=
EXTT12=
EXTT13=
EXTT14=
EXTT15=
EXTT16=
EXTT17=
EXTT18=
EXTT19=
EXTT20=
EXTT21=
EXTT22=
EXTT23=
EXTT24=
PLAYORDER=
